# File created by Blade
# Date/Time:  Thu Jan 22 19:18:16 2015
# Frame Rate: 120.000 fps
#------------------------------------------------------
:FULLY-SPECIFIED
:DEGREES
1613
root 1.028308 32.358784 -1.179381 9.061715 -3.005202 1.027655
RightUpLeg -3.231381 -15.290998 -10.080189
RightLeg -2.212073 -0.000000 0.000000
RightFoot -7.628822 -3.041496 11.291928
RightToeBase 7.227126 -0.000000 -0.000000
LeftUpLeg -2.996111 13.974699 13.362909
LeftLeg 0.651065 -0.000000 -0.000000
LeftFoot -7.505100 2.657776 -26.588780
LeftToeBase 9.519892 -0.000000 -0.000000
Spine -9.185039 -1.942406 0.759314
RightShoulder -22.001707 -14.105609 -27.292342
RightArm 21.414453 28.937210 37.011705
RightForeArm -17.690483 -0.000000 8.352526
RightHand 10.747922 0.000000 10.918229
RightHandThumb1 -24.326973 -0.000000 -32.862282
LeftShoulder -26.294964 7.603526 30.735362
LeftArm 16.736859 -26.251761 -31.979861
LeftForeArm 27.035391 -0.000000 -0.390785
LeftHand -3.502206 -0.000000 -7.135988
LeftHandThumb1 -26.253704 0.000000 33.147579
Head -5.434728 3.423971 -0.333076
1614
root 1.030002 32.358977 -1.180305 9.059034 -2.976776 1.034856
RightUpLeg -3.221661 -15.315560 -10.089491
RightLeg -2.216713 -0.000000 0.000000
RightFoot -7.634035 -2.996157 11.316169
RightToeBase 7.403902 -0.000000 -0.000000
LeftUpLeg -3.009534 13.954564 13.356564
LeftLeg 0.656703 -0.000000 -0.000000
LeftFoot -7.497263 2.640468 -26.602387
LeftToeBase 9.525837 -0.000000 -0.000000
Spine -9.189964 -1.953866 0.768215
RightShoulder -22.005728 -14.135344 -27.274747
RightArm 21.423777 28.881453 37.006948
RightForeArm -17.694874 0.000000 8.363268
RightHand 10.752123 -0.000000 10.897490
RightHandThumb1 -24.326973 -0.000000 -32.862282
LeftShoulder -26.296743 7.633565 30.717090
LeftArm 16.745194 -26.345705 -32.048485
LeftForeArm 27.148970 -0.000000 -0.276380
LeftHand -3.481134 -0.000000 -7.212173
LeftHandThumb1 -26.253704 0.000000 33.147579
Head -5.408259 3.379312 -0.319264
1615
root 1.032393 32.358637 -1.181089 9.053044 -2.955647 1.051408
RightUpLeg -3.207238 -15.332897 -10.109626
RightLeg -2.217518 -0.000000 0.000000
RightFoot -7.629759 -3.028600 11.263184
RightToeBase 7.333739 -0.000000 -0.000000
LeftUpLeg -3.016258 13.957916 13.337662
LeftLeg 0.659246 -0.000000 -0.000000
LeftFoot -7.480733 2.621338 -26.566199
LeftToeBase 9.495333 -0.000000 -0.000000
Spine -9.188777 -1.965210 0.761541
RightShoulder -22.009904 -14.174746 -27.245910
RightArm 21.441133 28.847570 37.012549
RightForeArm -17.714336 -0.000000 8.381994
RightHand 10.710935 -0.000000 10.915727
RightHandThumb1 -24.326973 -0.000000 -32.862282
LeftShoulder -26.299700 7.639661 30.710364
LeftArm 16.762777 -26.319083 -32.079043
LeftForeArm 27.139269 0.000000 -0.251785
LeftHand -3.507062 0.000000 -7.216619
LeftHandThumb1 -26.253704 0.000000 33.147579
Head -5.391154 3.423025 -0.347219
1616
root 1.035823 32.359341 -1.184170 9.072801 -2.946142 1.065262
RightUpLeg -3.239506 -15.337123 -10.123572
RightLeg -2.200842 -0.000000 0.000000
RightFoot -7.643221 -3.023645 11.304221
RightToeBase 7.255485 -0.000000 -0.000000
LeftUpLeg -3.051843 13.943407 13.311725
LeftLeg 0.668192 -0.000000 -0.000000
LeftFoot -7.484192 2.628048 -26.586918
LeftToeBase 9.510573 -0.000000 -0.000000
Spine -9.213747 -1.969791 0.765663
RightShoulder -22.006874 -14.218535 -27.226651
RightArm 21.464509 28.836333 37.042975
RightForeArm -17.649724 -0.000000 8.411427
RightHand 10.795851 0.000000 11.147365
RightHandThumb1 -24.326973 -0.000000 -32.862282
LeftShoulder -26.306836 7.661219 30.679971
LeftArm 16.794016 -26.346614 -32.119628
LeftForeArm 27.164272 -0.000000 -0.231626
LeftHand -3.499932 -0.000000 -7.186636
LeftHandThumb1 -26.253704 0.000000 33.147579
Head -5.377535 3.426428 -0.363399
